<svg width="35" height="35" viewBox="0 0 35 35" fill="none" xmlns="http://www.w3.org/2000/svg">
<path d="M28.0388 34.5608H16.6378C16.1939 34.5099 15.75 34.4703 15.3117 34.4081C11.3504 33.854 7.91154 32.203 5.05709 29.3703C2.50607 26.8372 0.882182 23.7896 0.258474 20.2275C0.151713 19.6112 0.0842849 18.9836 0 18.3617C0 17.6662 0 16.9651 0 16.2696C0.022476 16.1622 0.0505709 16.0548 0.0561899 15.9473C0.393329 11.9442 1.90484 8.45558 4.61319 5.50411C9.15895 0.568032 16.4075 -1.28088 22.6108 0.912935C29.5053 3.34988 34.259 10.0105 34.332 17.3891C34.3601 20.3915 34.3433 23.3939 34.332 26.3962C34.332 27.4253 34.1803 28.4374 33.8544 29.4099C33.0565 31.8242 31.5675 33.577 29.067 34.3177C28.7299 34.4195 28.3759 34.4816 28.0331 34.5608H28.0388Z" fill="url(#paint0_linear_446_802)"/>
<path d="M28.0332 15.1727H28.0276C27.2238 15.1727 26.5723 15.8283 26.5723 16.6371V17.9206C26.5723 18.7294 27.2238 19.385 28.0276 19.385H28.0332C28.837 19.385 29.4885 18.7294 29.4885 17.9206V16.6371C29.4885 15.8283 28.837 15.1727 28.0332 15.1727Z" fill="white"/>
<path d="M6.32703 15.1727H6.32141C5.51766 15.1727 4.86609 15.8283 4.86609 16.6371V17.9206C4.86609 18.7294 5.51766 19.385 6.32141 19.385H6.32703C7.13078 19.385 7.78235 18.7294 7.78235 17.9206V16.6371C7.78235 15.8283 7.13078 15.1727 6.32703 15.1727Z" fill="white"/>
<path d="M22.6052 9.47333H22.5996C21.7959 9.47333 21.1443 10.129 21.1443 10.9378V23.62C21.1443 24.4288 21.7959 25.0844 22.5996 25.0844H22.6052C23.409 25.0844 24.0605 24.4288 24.0605 23.62V10.9378C24.0605 10.129 23.409 9.47333 22.6052 9.47333Z" fill="white"/>
<path d="M11.7494 9.47333H11.7438C10.94 9.47333 10.2885 10.129 10.2885 10.9378V23.62C10.2885 24.4288 10.94 25.0844 11.7438 25.0844H11.7494C12.5531 25.0844 13.2047 24.4288 13.2047 23.62V10.9378C13.2047 10.129 12.5531 9.47333 11.7494 9.47333Z" fill="white"/>
<path d="M17.1772 4.46939H17.1716C16.3679 4.46939 15.7163 5.12504 15.7163 5.93382V28.6183C15.7163 29.4271 16.3679 30.0827 17.1716 30.0827H17.1772C17.981 30.0827 18.6326 29.4271 18.6326 28.6183V5.93382C18.6326 5.12504 17.981 4.46939 17.1772 4.46939Z" fill="white"/>
<defs>
<linearGradient id="paint0_linear_446_802" x1="17.1722" y1="-3.81099" x2="17.1722" y2="36.3626" gradientUnits="userSpaceOnUse">
<stop stop-color="#3F82D9"/>
<stop offset="1" stop-color="#4B55C0"/>
</linearGradient>
</defs>
</svg>
