<svg width="187" height="36" viewBox="0 0 187 36" fill="none" xmlns="http://www.w3.org/2000/svg">
<g clip-path="url(#clip0_526_282)">
<path d="M115.055 27.2134C115.055 28.3951 115.043 29.5825 115.021 30.7642C115.004 31.6066 115.291 32.8562 114.684 33.563C114.032 34.3206 112.475 34.315 111.576 34.1284C111.166 34.0436 110.762 33.8966 110.453 33.6139C110.042 33.2464 109.84 32.6866 109.795 32.1381C109.655 30.4306 110.037 28.5478 110.127 26.8289C110.217 25.0252 110.239 23.2046 109.975 21.4122C109.818 20.3436 109.514 19.2523 108.823 18.4212C107.941 17.3695 106.502 16.8719 105.143 16.985C103.193 17.1433 101.226 18.4099 100.428 20.2361C99.8495 21.5649 99.8776 23.0689 99.917 24.5163C99.9675 26.32 100.012 28.1237 100.063 29.9274C100.102 31.3353 100.642 33.6987 98.8662 34.1227C98.0346 34.3206 97.1693 34.3998 96.3152 34.3602C95.8432 34.3376 95.315 34.2471 95.0509 33.8513C94.8655 33.5799 94.8599 33.2237 94.8599 32.8958C94.8711 26.6027 94.8823 20.3096 94.8992 14.0166C94.8992 13.6377 94.9104 13.225 95.1408 12.9197C95.4723 12.4786 96.1129 12.4447 96.6636 12.473C97.5401 12.5182 98.4111 12.6087 99.2708 12.75C99.4506 12.7783 99.636 12.8122 99.7821 12.9197C100.507 13.4512 99.6191 14.6329 100.091 15.3057C100.94 14.9665 101.738 13.8752 102.614 13.3946C103.625 12.8405 104.732 12.4786 105.879 12.3486C109.582 11.9132 113.329 13.83 114.667 17.4034C115.071 18.4777 114.942 19.8064 114.976 20.9655C115.015 22.3395 115.043 23.7191 115.055 25.0931C115.06 25.7998 115.066 26.5066 115.06 27.2134H115.055Z" fill="url(#paint0_linear_526_282)"/>
<path d="M68.5011 13.3155C69.2596 11.6249 70.0407 9.95129 70.8554 8.28897C71.7151 6.53618 72.5355 4.72685 73.6144 3.09845C74.1257 2.38603 74.8281 1.71318 75.4799 1.1195C75.8957 0.740669 76.3283 0.390111 76.7779 0.056516C73.8279 -0.118763 70.6082 -0.0282962 68.2988 1.82627C66.585 3.19457 65.6635 5.30923 64.8094 7.33341C63.1237 11.3139 61.438 15.2945 59.7523 19.275C58.769 21.5988 57.7295 23.9114 56.7967 26.2579C56.6562 26.5858 56.4989 26.9364 56.1955 27.1173C55.5549 27.5018 54.802 26.9646 54.4424 26.4331C54.0209 25.8112 53.8187 25.0761 53.5208 24.392C53.105 23.4251 52.7005 22.4583 52.3015 21.4858C51.5036 19.5407 50.7451 17.5787 50.0146 15.6111C49.4583 14.1127 48.9245 12.6087 48.4076 11.0934C47.8232 9.38022 47.2276 7.59916 45.9745 6.30436C44.7721 5.06044 43.0695 4.40456 41.367 4.16143C39.6644 3.9183 37.9282 4.054 36.2087 4.1897C39.7375 6.31001 41.4625 10.4319 42.974 14.2767C44.6541 18.5682 46.3398 22.8654 48.0199 27.1569C48.5818 28.5874 49.1493 30.0292 50.009 31.3014C50.8687 32.5736 52.0599 33.6705 53.5152 34.1341C56.4315 35.0557 59.6006 33.1672 61.3312 30.6342C62.4494 29.0058 63.0338 27.1569 63.6912 25.3136C64.3824 23.3799 65.1072 21.4575 65.8714 19.5464C66.7086 17.4487 67.5908 15.368 68.5123 13.3042L68.5011 13.3155Z" fill="url(#paint1_linear_526_282)"/>
<path d="M132.692 24.9574C132.72 25.1779 132.715 25.4154 132.692 25.6472C132.749 25.3758 132.749 25.1496 132.692 24.9574Z" fill="url(#paint2_linear_526_282)"/>
<path d="M144.492 34.3716C142.756 34.3886 141.452 33.2182 141.413 31.6124C141.374 29.7748 142.441 28.5818 144.138 28.5705C145.807 28.5648 147.094 29.8087 147.105 31.4541C147.116 33.0881 145.981 34.3547 144.492 34.366V34.3716Z" fill="#4056A0"/>
<path d="M72.395 16.8155H72.3557C72.4625 16.6572 72.5749 16.4989 72.6816 16.3462C73.0356 16.8155 72.6985 16.8042 72.395 16.8155Z" fill="#465CC6"/>
<path d="M90.432 19.405C90.0556 18.4099 89.6397 17.4261 89.0104 16.561C85.1277 11.2008 77.3061 10.8729 73.0132 15.8938C69.7822 19.6764 69.3833 25.9186 72.2827 30.0066C75.6934 34.8182 83.0824 35.5646 87.9316 32.6697C89.0554 31.9968 89.7802 31.1657 89.061 29.8878C88.7632 29.362 88.2968 28.6609 87.6619 28.5308C86.9202 28.3782 86.4088 29.0397 85.802 29.3507C85.285 29.6221 84.6838 29.82 84.1163 29.967C82.9307 30.2836 81.672 30.3515 80.4696 30.131C78.0759 29.6956 76.1148 28.0615 75.5923 25.6246C75.5473 25.4097 75.5136 25.1836 75.5923 24.9744C75.9126 24.098 80.6718 24.6521 81.5709 24.6577C83.8466 24.669 86.1223 24.6803 88.398 24.6917C89.9151 24.6973 90.9995 24.1319 91.1288 22.4639C91.1906 21.6554 90.9771 20.8525 90.6961 20.0948C90.6118 19.863 90.5219 19.6312 90.4376 19.405H90.432ZM84.0208 21.3274C83.4757 21.3274 82.9307 21.3105 82.3969 21.3105C81.3236 21.3105 80.2448 21.3161 79.1716 21.3218C78.6771 21.3218 78.1826 21.3218 77.6882 21.3218C77.4072 21.3218 77.1263 21.3218 76.8509 21.3218C76.5981 21.3218 76.289 21.3783 76.0474 21.2992C75.7608 21.2087 75.6541 20.9769 75.7103 20.6942C76.0137 19.1562 76.9352 17.754 78.3681 17.0699C79.9863 16.3009 82.0541 16.103 83.6836 16.9681C84.0826 17.1829 84.459 17.46 84.7681 17.7879C85.403 18.4608 85.6896 19.2524 85.8638 20.1457C85.8863 20.2701 85.9087 20.3945 85.9312 20.5245C85.9593 20.6942 85.9874 20.909 85.8694 21.0504C85.7851 21.1578 85.639 21.1861 85.5042 21.2087C85.0209 21.2879 84.5208 21.3048 84.0208 21.3105V21.3274Z" fill="url(#paint3_linear_526_282)"/>
<path d="M179.071 33.5064C177.532 29.7408 176.032 25.9638 174.514 22.1868C172.317 16.4479 170.07 10.7202 167.957 4.94732C167.446 3.54509 166.811 2.91747 165.288 3.09841C164.08 3.23976 162.833 3.18887 161.619 3.08144C160.748 3.00229 160.371 3.31892 160.074 4.10485C158.298 8.82607 156.421 13.5077 154.674 18.2289C153.533 21.3217 152.095 24.3071 151.196 27.4848C150.319 29.7182 149.431 31.9572 148.499 34.3433C150.274 34.3433 151.96 34.2867 153.64 34.3659C154.41 34.3998 154.73 34.1114 154.96 33.4386C155.646 31.4766 156.399 29.5316 157.096 27.5752C157.281 27.0494 157.511 26.631 158.079 26.484C162.04 26.614 165.996 26.614 169.957 26.4953C170.368 26.795 170.497 27.2586 170.671 27.6996C171.402 29.5938 172.126 31.4992 172.885 33.3877C173.065 33.8344 173.166 34.3602 173.924 34.3263C175.475 34.2528 177.032 34.2811 178.588 34.3263C179.341 34.3489 179.324 34.1114 179.083 33.5064H179.071ZM159.489 20.7959C160.523 18.1158 161.518 15.4132 162.507 12.7105C162.698 12.1846 162.793 11.6249 162.939 11.0821C163.434 10.658 163.305 9.93993 163.777 9.27274C165.277 13.2533 166.721 17.0868 168.165 20.926C168.395 21.7119 168.165 22.0285 167.294 22.0002C164.951 21.9267 162.597 21.8928 160.253 21.9324C159.253 21.9494 159.158 21.6497 159.484 20.7959H159.489Z" fill="url(#paint4_linear_526_282)"/>
<path d="M185.753 5.99341H183.145C182.456 5.99341 181.898 6.55539 181.898 7.24863V33.1164C181.898 33.8096 182.456 34.3716 183.145 34.3716H185.753C186.441 34.3716 187 33.8096 187 33.1164V7.24863C187 6.55539 186.441 5.99341 185.753 5.99341Z" fill="url(#paint5_linear_526_282)"/>
<path d="M137.856 30.555C137.839 30.3854 137.823 30.2214 137.806 30.0518C137.609 27.9032 137.603 25.6755 137.648 23.5269C137.705 20.7111 137.963 17.3808 136.137 15.0174C134.901 13.4229 132.883 12.6257 130.889 12.326C127.371 11.7889 123.657 12.6087 120.685 14.582C120.516 14.6951 120.342 14.8195 120.258 15.0004C120.128 15.2831 120.224 15.6167 120.336 15.9051C120.567 16.5044 120.831 17.0924 121.129 17.6635C121.275 17.9406 121.443 18.2233 121.73 18.3477C122.157 18.523 122.629 18.2516 123.022 18.0141C125.337 16.6175 128.961 15.7863 131.355 17.4769C131.99 17.9293 132.456 18.6191 132.563 19.405C132.619 19.7951 132.546 20.2079 132.31 20.5245C132.046 20.8751 131.608 21.0504 131.175 21.0956C130.619 21.1521 130.068 20.9938 129.506 20.9825C128.298 20.9655 127.096 20.9825 125.899 21.1578C123.174 21.5479 120.016 23.0067 118.993 25.7659C117.909 28.6835 119.437 32.1834 122.179 33.563C125.208 35.0896 129.327 34.3376 131.917 32.2965C132.147 32.1099 132.456 31.9063 132.709 32.0533C132.945 32.1834 132.957 32.5113 133.013 32.7714C133.209 33.6761 134.226 34.1963 135.148 34.1284C136.261 34.0436 137.542 33.4951 137.839 32.3191C137.986 31.7424 137.935 31.143 137.873 30.555H137.856ZM132.698 25.6528C132.681 25.9186 132.636 26.19 132.586 26.4275C132.052 29.1471 129.254 30.5267 126.669 30.3006C126.034 30.244 125.399 30.097 124.848 29.7747C124.32 29.4694 123.685 28.8701 123.612 28.2198C123.556 27.7279 123.713 27.0607 123.893 26.5971C124.286 25.5963 125.281 25.2005 126.236 24.9235C127.068 24.6803 127.916 24.5164 128.765 24.3637C129.557 24.2167 130.394 23.9283 131.209 24.0131C131.619 24.0527 132.041 24.2054 132.338 24.4937C132.653 24.7934 132.715 25.2231 132.692 25.6528H132.698Z" fill="url(#paint6_linear_526_282)"/>
<path d="M132.687 25.6528C132.676 25.7772 132.664 25.896 132.642 26.0204C132.603 26.0825 132.614 25.9921 132.687 25.6528Z" fill="url(#paint7_linear_526_282)"/>
<path d="M28.0388 36H16.6378C16.1939 35.9491 15.75 35.9096 15.3117 35.8474C11.3504 35.2932 7.91154 33.6422 5.05709 30.8095C2.50607 28.2764 0.882182 25.2289 0.258474 21.6667C0.151713 21.0504 0.0842849 20.4228 0 19.8009C0 19.1054 0 18.4043 0 17.7088C0.022476 17.6014 0.0505709 17.494 0.0561899 17.3865C0.393329 13.3834 1.90484 9.89479 4.61319 6.94332C9.15895 2.00724 16.4075 0.158332 22.6108 2.35214C29.5053 4.78908 34.259 11.4497 34.332 18.8284C34.3601 21.8307 34.3433 24.8331 34.332 27.8354C34.332 28.8645 34.1803 29.8766 33.8544 30.8491C33.0565 33.2634 31.5675 35.0162 29.067 35.7569C28.7299 35.8587 28.3759 35.9209 28.0331 36H28.0388Z" fill="url(#paint8_linear_526_282)"/>
<path d="M28.0332 16.6119H28.0276C27.2238 16.6119 26.5723 17.2676 26.5723 18.0764V19.3599C26.5723 20.1686 27.2238 20.8243 28.0276 20.8243H28.0332C28.837 20.8243 29.4885 20.1686 29.4885 19.3599V18.0764C29.4885 17.2676 28.837 16.6119 28.0332 16.6119Z" fill="white"/>
<path d="M6.32703 16.6119H6.32141C5.51766 16.6119 4.86609 17.2676 4.86609 18.0764V19.3599C4.86609 20.1686 5.51766 20.8243 6.32141 20.8243H6.32703C7.13078 20.8243 7.78235 20.1686 7.78235 19.3599V18.0764C7.78235 17.2676 7.13078 16.6119 6.32703 16.6119Z" fill="white"/>
<path d="M22.6052 10.9125H22.5996C21.7959 10.9125 21.1443 11.5681 21.1443 12.3769V25.0592C21.1443 25.868 21.7959 26.5236 22.5996 26.5236H22.6052C23.409 26.5236 24.0605 25.868 24.0605 25.0592V12.3769C24.0605 11.5681 23.409 10.9125 22.6052 10.9125Z" fill="white"/>
<path d="M11.7494 10.9125H11.7438C10.94 10.9125 10.2885 11.5681 10.2885 12.3769V25.0592C10.2885 25.868 10.94 26.5236 11.7438 26.5236H11.7494C12.5531 26.5236 13.2047 25.868 13.2047 25.0592V12.3769C13.2047 11.5681 12.5531 10.9125 11.7494 10.9125Z" fill="white"/>
<path d="M17.1772 5.90857H17.1716C16.3679 5.90857 15.7163 6.56422 15.7163 7.373V30.0575C15.7163 30.8662 16.3679 31.5219 17.1716 31.5219H17.1772C17.981 31.5219 18.6326 30.8662 18.6326 30.0575V7.373C18.6326 6.56422 17.981 5.90857 17.1772 5.90857Z" fill="white"/>
</g>
<defs>
<linearGradient id="paint0_linear_526_282" x1="104.966" y1="9.85258" x2="104.966" y2="35.5214" gradientUnits="userSpaceOnUse">
<stop stop-color="#3F82D9"/>
<stop offset="1" stop-color="#4B55C0"/>
</linearGradient>
<linearGradient id="paint1_linear_526_282" x1="56.4652" y1="0.056516" x2="56.9488" y2="43.1581" gradientUnits="userSpaceOnUse">
<stop stop-color="#3FD1C2"/>
<stop offset="0.45" stop-color="#407CD6"/>
<stop offset="0.72" stop-color="#4A5AC3"/>
<stop offset="0.99" stop-color="#6B5CB4"/>
</linearGradient>
<linearGradient id="paint2_linear_526_282" x1="132.715" y1="24.8443" x2="132.715" y2="25.6189" gradientUnits="userSpaceOnUse">
<stop offset="0.01" stop-color="#B3B3B3"/>
<stop offset="1" stop-color="#808080"/>
</linearGradient>
<linearGradient id="paint3_linear_526_282" x1="80.7336" y1="9.89473" x2="80.7336" y2="35.5194" gradientUnits="userSpaceOnUse">
<stop stop-color="#3F82D9"/>
<stop offset="1" stop-color="#4B55C0"/>
</linearGradient>
<linearGradient id="paint4_linear_526_282" x1="163.863" y1="-0.38349" x2="163.863" y2="36.0004" gradientUnits="userSpaceOnUse">
<stop stop-color="#3F82D9"/>
<stop offset="1" stop-color="#4B55C0"/>
</linearGradient>
<linearGradient id="paint5_linear_526_282" x1="184.449" y1="2.86417" x2="184.449" y2="35.8511" gradientUnits="userSpaceOnUse">
<stop stop-color="#3F82D9"/>
<stop offset="1" stop-color="#4B55C0"/>
</linearGradient>
<linearGradient id="paint6_linear_526_282" x1="128.287" y1="9.71616" x2="128.287" y2="35.5298" gradientUnits="userSpaceOnUse">
<stop stop-color="#3F82D9"/>
<stop offset="1" stop-color="#4B55C0"/>
</linearGradient>
<linearGradient id="paint7_linear_526_282" x1="132.659" y1="25.5906" x2="132.659" y2="26.026" gradientUnits="userSpaceOnUse">
<stop offset="0.01" stop-color="#B3B3B3"/>
<stop offset="1" stop-color="#808080"/>
</linearGradient>
<linearGradient id="paint8_linear_526_282" x1="17.1722" y1="-2.37178" x2="17.1722" y2="37.8018" gradientUnits="userSpaceOnUse">
<stop stop-color="#3F82D9"/>
<stop offset="1" stop-color="#4B55C0"/>
</linearGradient>
<clipPath id="clip0_526_282">
<rect width="187" height="36" fill="white"/>
</clipPath>
</defs>
</svg>
